<svg width="100" height="100" viewBox="0 0 100 100" fill="none" xmlns="http://www.w3.org/2000/svg">
<g clip-path="url(#clip0_291_207)">
<path d="M60.461 17.3388L15.1207 61.9223M60.461 17.3388L79.5331 36.6235M60.461 17.3388L71.9884 7.16426C72.7753 6.46977 73.9681 6.5096 74.7163 7.25536L90.5577 23.0461C91.3526 23.8384 91.349 25.1265 90.5498 25.9042L79.5331 36.6235M15.1207 61.9223L9.81137 86.1352C9.46705 87.7055 11.0194 89.0321 12.5083 88.4399L35.3333 79.3609M15.1207 61.9223L35.3333 79.3609M35.3333 79.3609L79.5331 36.6235" stroke="#EC00FF" stroke-width="6" stroke-linecap="round"/>
<path d="M69.7532 46.3718C77.2186 52.5753 83.5577 58.8836 87.9337 64.7719C88.5511 65.6025 88.3923 66.7635 87.5988 67.4279L70.9883 81.3376C70.2673 81.9413 69.2216 81.9604 68.4788 81.3838C61.3952 75.8855 56.6686 72.0774 51.0001 66.2545" stroke="#EC00FF" stroke-width="6" stroke-linecap="round"/>
<path d="M32 44C25.5733 35.1218 20.821 26.0862 15.5351 16.1283C14.6655 14.4901 16.2849 12.6736 17.9896 13.4044C27.687 17.5617 38.0742 23.1743 48.0001 29.5138" stroke="#EC00FF" stroke-width="6" stroke-linecap="round"/>
</g>
<defs>
<clipPath id="clip0_291_207">
<rect width="100" height="100" fill="white"/>
</clipPath>
</defs>
</svg>
