<svg width="100" height="100" viewBox="0 0 100 100" fill="none" xmlns="http://www.w3.org/2000/svg">
<g clip-path="url(#clip0_291_196)">
<path d="M16 3H84C91.1797 3 97 8.8203 97 16V58C97 65.1797 91.1797 71 84 71H16C8.8203 71 3 65.1797 3 58V16C3 8.8203 8.8203 3 16 3Z" stroke="#00C853" stroke-width="6"/>
<path d="M20 100L50 68L80 100H60L50 90L40 100H20Z" fill="#00C853"/>
<path d="M37 28L22.1361 40.678C21.0904 41.57 21.2353 43.2266 22.42 43.9235L37 52.5" stroke="#00C853" stroke-width="6" stroke-linecap="round"/>
<path d="M63 28L77.8639 40.678C78.9096 41.57 78.7647 43.2266 77.58 43.9235L63 52.5" stroke="#00C853" stroke-width="6" stroke-linecap="round"/>
<path d="M52.5 28L48 53.5" stroke="#00C853" stroke-width="6" stroke-linecap="round"/>
</g>
<defs>
<clipPath id="clip0_291_196">
<rect width="100" height="100" fill="white"/>
</clipPath>
</defs>
</svg>
