<svg width="55" height="55" viewBox="0 0 55 55" fill="none" xmlns="http://www.w3.org/2000/svg">
<path fill-rule="evenodd" clip-rule="evenodd" d="M27.5 52C41.031 52 52 41.031 52 27.5C52 13.969 41.031 3 27.5 3C13.969 3 3 13.969 3 27.5C3 41.031 13.969 52 27.5 52Z" stroke="#2979FF" stroke-width="5"/>
<path d="M34.5 17.0001H24.6743C23.5419 16.9097 22.4268 17.3204 21.6235 18.1236C20.8203 18.9269 20.4096 20.042 20.5 21.1744C20.5 25.7501 34.5 29.2501 34.5 33.8258C34.5205 34.939 34.0873 36.0127 33.2999 36.8C32.5126 37.5874 31.4389 38.0206 30.3257 38.0001H20.5" stroke="#2979FF" stroke-width="5"/>
<path d="M27.5 17.0001V11.7501" stroke="#2979FF" stroke-width="5"/>
<path d="M27.5 43.25V38" stroke="#2979FF" stroke-width="5"/>
</svg>
