<svg width="70" height="69" viewBox="0 0 70 69" fill="none" xmlns="http://www.w3.org/2000/svg">
<path d="M35 0.333374C16.14 0.333374 0.833313 15.64 0.833313 34.5C0.833313 53.36 16.14 68.6667 35 68.6667C53.86 68.6667 69.1666 53.36 69.1666 34.5C69.1666 15.64 53.86 0.333374 35 0.333374ZM35 10.5834C40.6716 10.5834 45.25 15.1617 45.25 20.8334C45.25 26.505 40.6716 31.0834 35 31.0834C29.3283 31.0834 24.75 26.505 24.75 20.8334C24.75 15.1617 29.3283 10.5834 35 10.5834ZM35 59.1C26.4583 59.1 18.9075 54.7267 14.5 48.0984C14.6025 41.2992 28.1666 37.575 35 37.575C41.7991 37.575 55.3975 41.2992 55.5 48.0984C51.0925 54.7267 43.5416 59.1 35 59.1Z" fill="#9CA3AF"/>
</svg>
